<svg id="图层_1" data-name="图层 1" xmlns="http://www.w3.org/2000/svg" viewBox="0 0 287.91 76.37"><defs><style>.cls-1{fill:#fff;}</style></defs><title>mrlogo-w</title><polygon class="cls-1" points="76.37 0 76.37 0 63.64 0 70 19.09 50.91 76.37 101.82 25.46 76.37 0"/><polygon class="cls-1" points="63.64 0 38.18 0 50.91 12.73 63.64 0"/><polygon class="cls-1" points="38.18 0 25.46 0 25.46 0 0 25.46 50.91 76.37 31.82 19.09 38.18 0"/><path class="cls-1" d="M125.76,33.26q-1,2.73-1.94,5.21c-.66,1.64-1.35,3.28-2.09,4.92V74.93h-8.21V56.83q-1.63,2.06-3.36,4.08l-2.21-11A52.11,52.11,0,0,0,117.17,31Zm.19,0h24.39v8.45q-5.72,5.72-9.24,9.65t-5.5,6.51a26.62,26.62,0,0,0-2.66,4,5.45,5.45,0,0,0-.7,2.09,1.38,1.38,0,0,0,.51,1.25,3.1,3.1,0,0,0,1.65.34h6.53a4.06,4.06,0,0,0,2.36-.51,3.24,3.24,0,0,0,.86-2.23c0-.39.07-.88.12-1.49s.09-1.24.12-1.9.06-1.29.1-1.92,0-1.17,0-1.65l8.69,2.83c0,.48-.07,1.06-.12,1.73s-.1,1.36-.17,2.06-.13,1.4-.21,2.09-.15,1.31-.22,1.85a11.32,11.32,0,0,1-.89,3.48,5.93,5.93,0,0,1-1.75,2.28,6.93,6.93,0,0,1-2.71,1.25,17,17,0,0,1-3.82.38H131.48a11.63,11.63,0,0,1-3.53-.5,7.64,7.64,0,0,1-2.76-1.49,6.57,6.57,0,0,1-1.78-2.45,8.61,8.61,0,0,1-.62-3.43,11.36,11.36,0,0,1,.67-3.55,24.34,24.34,0,0,1,2.45-4.9,76.5,76.5,0,0,1,4.8-6.77c2-2.59,4.61-5.65,7.77-9.17H126Z"/><path class="cls-1" d="M197.89,32.68v8.59H172.83l-.14,3.84h21.56c0,1.06-.08,2.47-.15,4.23s-.13,3.62-.21,5.57-.16,3.86-.24,5.74-.16,3.44-.22,4.72a15.69,15.69,0,0,1-.62,4.11,5.9,5.9,0,0,1-1.64,2.64,6.35,6.35,0,0,1-2.85,1.39,19.18,19.18,0,0,1-4.25.41h-8.31L173.94,65h6.82a11.85,11.85,0,0,0,1.87-.12,2.46,2.46,0,0,0,1.15-.46,1.72,1.72,0,0,0,.6-1,9.31,9.31,0,0,0,.22-1.71c0-.51.07-1.12.12-1.85s.08-1.44.12-2.18.06-1.46.09-2.16,0-1.31,0-1.82H172.11a41.78,41.78,0,0,1-1.2,6.28,26.51,26.51,0,0,1-2.08,5.31,31.91,31.91,0,0,1-3.22,4.92q-1.91,2.4-4.54,5.14l-7.92-6.48a59.25,59.25,0,0,0,5.11-5.24,21,21,0,0,0,3.15-4.87A20.8,20.8,0,0,0,163,53.23a68.33,68.33,0,0,0,.6-7.4l0-4.56h-8.84V32.68Z"/><path class="cls-1" d="M212.77,32.78c-.16.7-.31,1.41-.46,2.11a18.21,18.21,0,0,1-.55,2.11h4V31.14h9V37H238.6v8.26H224.77v3.93h15.89v8.26H228.13v6.29q0,1,.36,1.23a2.2,2.2,0,0,0,1.23.26h.91a2.13,2.13,0,0,0,1.37-.34,1.65,1.65,0,0,0,.5-1.15c0-.57.07-1.28.1-2.11s.05-1.57.05-2.21l8.4,2.31c0,.83-.07,1.72-.12,2.66s-.11,1.77-.17,2.47a15.72,15.72,0,0,1-.77,3.6,5.11,5.11,0,0,1-1.56,2.28,6.13,6.13,0,0,1-2.59,1.18,18.46,18.46,0,0,1-3.77.34h-6a13.53,13.53,0,0,1-3.24-.34,4.52,4.52,0,0,1-2.14-1.18,4.92,4.92,0,0,1-1.17-2.25,14.91,14.91,0,0,1-.36-3.58V57.45h-2.79A31,31,0,0,1,215,63.19a17.4,17.4,0,0,1-2.38,4.54,22.94,22.94,0,0,1-3.79,4,55,55,0,0,1-5.54,4l-6.87-7.78q2.64-1.35,4.49-2.47A18.9,18.9,0,0,0,204,63.07a10.69,10.69,0,0,0,2-2.54,11.56,11.56,0,0,0,1.12-3.08h-10V49.19h8.21l-7.49-3.07a36,36,0,0,0,4-6.72,37.33,37.33,0,0,0,2.38-7.63Zm-4.08,12.48c-.32.7-.65,1.37-1,2s-.68,1.29-1,1.92h9.13V45.26Z"/><path class="cls-1" d="M259,33.74c-.19.73-.37,1.45-.55,2.16s-.36,1.37-.55,2h4.32V31.05h9.46v6.86h14.74v8.55H271.64V51.4h13.15v8.41H271.64v5.13h16.27v8.74H244.56V64.94h17.62V59.81H248.06v-7.3L243,50.35a50.06,50.06,0,0,0,4.15-8.69,55.51,55.51,0,0,0,2.52-9.36Zm-3.89,12.72A46.82,46.82,0,0,1,253,51.4h9.17V46.46Z"/><path class="cls-1" d="M243.81,10.45V22.79h-3.12V19.44c0-.63,0-1.21,0-1.76s0-1.07.08-1.6.07-1,.13-1.56.11-1.08.18-1.66h0c-.13.62-.28,1.28-.46,2s-.36,1.32-.54,1.94l-.2.65-.27.86-.31,1c-.11.34-.21.68-.31,1-.24.78-.5,1.62-.78,2.51H235c-.27-.89-.53-1.74-.78-2.53-.11-.33-.21-.67-.31-1l-.31-1c-.09-.31-.18-.6-.27-.86s-.15-.47-.2-.64c-.18-.59-.36-1.22-.53-1.9s-.33-1.36-.47-2l0,0c.06.6.13,1.17.18,1.72s.1,1.09.14,1.63.06,1.11.08,1.69,0,1.19,0,1.85v3.07h-3.11V10.45H234c.28,1,.55,1.83.8,2.66l.33,1.05c.1.36.21.69.3,1l.27.85c.08.25.14.44.19.58.14.41.26.88.38,1.4s.22,1,.3,1.49c.08-.47.19-1,.3-1.48s.24-1,.37-1.41c0-.14.1-.33.17-.58s.16-.53.26-.85.2-.64.31-1l.32-1.05.81-2.66Z"/><path class="cls-1" d="M248.74,18.23h-1.07v4.56h-3.1V10.46h6.48a4.21,4.21,0,0,1,2.89.84,3.31,3.31,0,0,1,.91,2.57v.84a6.54,6.54,0,0,1-.14,1.5,2.52,2.52,0,0,1-.45,1,2,2,0,0,1-.83.62,4.85,4.85,0,0,1-1.28.33l3.59,4.61H251.8Zm1.88-5.05h-3v2.34h2.89a1.56,1.56,0,0,0,.95-.21.9.9,0,0,0,.26-.73v-.43a1,1,0,0,0-.24-.72A1.27,1.27,0,0,0,250.62,13.18Z"/><path class="cls-1" d="M261.94,10.2a4.1,4.1,0,0,1,3.3,1.26,5.9,5.9,0,0,1,1.06,3.87v2.83a9.86,9.86,0,0,1-.24,2.38,3.32,3.32,0,0,1-.76,1.51,2.85,2.85,0,0,1-1.39.79,8.47,8.47,0,0,1-2.12.23h-1.13a7.53,7.53,0,0,1-2-.24,3.29,3.29,0,0,1-1.42-.82,3.55,3.55,0,0,1-.83-1.51,8.23,8.23,0,0,1-.28-2.34v-3a5.5,5.5,0,0,1,1.08-3.76,4.41,4.41,0,0,1,3.43-1.19Zm1.27,4.92a4.64,4.64,0,0,0-.09-1,1.46,1.46,0,0,0-.32-.66,1.29,1.29,0,0,0-.59-.36,3.51,3.51,0,0,0-.94-.11h-.16a3.38,3.38,0,0,0-.91.11,1.4,1.4,0,0,0-.59.36,1.56,1.56,0,0,0-.33.67,4.82,4.82,0,0,0-.09,1V18a5.16,5.16,0,0,0,.1,1.15,1.49,1.49,0,0,0,.33.68,1.09,1.09,0,0,0,.56.33,3.34,3.34,0,0,0,.83.09h.43a3.49,3.49,0,0,0,.86-.09,1.11,1.11,0,0,0,.55-.36,1.56,1.56,0,0,0,.28-.69,6.12,6.12,0,0,0,.08-1.15Z"/><path class="cls-1" d="M272.94,10.2a4.08,4.08,0,0,1,3.3,1.26,5.9,5.9,0,0,1,1.07,3.87v2.83a9.86,9.86,0,0,1-.24,2.38,3.42,3.42,0,0,1-.76,1.51,2.94,2.94,0,0,1-1.39.79,8.47,8.47,0,0,1-2.12.23h-1.14a7.46,7.46,0,0,1-2-.24,3.23,3.23,0,0,1-1.42-.82,3.46,3.46,0,0,1-.84-1.51,8.65,8.65,0,0,1-.27-2.34v-3a5.55,5.55,0,0,1,1.07-3.76,4.44,4.44,0,0,1,3.44-1.19Zm1.28,4.92a4.64,4.64,0,0,0-.09-1,1.57,1.57,0,0,0-.32-.66,1.38,1.38,0,0,0-.6-.36,3.48,3.48,0,0,0-.93-.11h-.16a3.33,3.33,0,0,0-.91.11,1.25,1.25,0,0,0-.92,1,4.74,4.74,0,0,0-.1,1V18a5.08,5.08,0,0,0,.11,1.15,1.49,1.49,0,0,0,.32.68,1.17,1.17,0,0,0,.57.33,3.29,3.29,0,0,0,.83.09h.42a3.49,3.49,0,0,0,.86-.09,1.11,1.11,0,0,0,.55-.36,1.46,1.46,0,0,0,.29-.69,7.11,7.11,0,0,0,.08-1.15Z"/><path class="cls-1" d="M287.68,10.45v2.66c-.71,1-1.31,1.83-1.8,2.63a21.47,21.47,0,0,0-1.27,2.3,17.51,17.51,0,0,0-.89,2.25c-.24.76-.46,1.57-.67,2.45h-3.47c.26-.94.52-1.81.79-2.62a24.21,24.21,0,0,1,.92-2.34c.35-.76.75-1.51,1.19-2.26s1-1.53,1.58-2.35h-6.18V10.45Z"/></svg>