<svg xmlns="http://www.w3.org/2000/svg" viewBox="0 0 48 48"><defs><style>.cls-1{fill:#f08704;}</style></defs><title>mg</title><g id="图层_2" data-name="图层 2"><path class="cls-1" d="M24,0A24,24,0,0,0,1,30.77c1.86-2.57,5.9-8.26,7.85-11.59C11.4,14.78,15,8.23,15.56,7s1.46-2.7,3.1-2.15S20.3,7,20.21,7.89a81.28,81.28,0,0,0-.67,12.57c.06,8,1.3,13.29,2,14.2s1,.25,1.31,0a38.56,38.56,0,0,0,6.52-10c2.83-6.1,3.8-8.26,3.8-8.26s.66-2.31,2.76-1.76,1.61,2.34,1.67,3.16.91,8.41,4.1,13.08c.36.52.82,1,.42,1.49s-.91-.06-1.21-.37S38,29.63,35.05,22.58c-2.19,4.68-4.71,9.7-6.92,12.55s-3.95,4.66-6.44,4.39-3.88-1.94-5.19-5.64S15.26,19,15.26,18C13.8,20.74,7.93,31.27,4.11,37.43A24,24,0,1,0,24,0Z"/></g></svg>