<svg xmlns="http://www.w3.org/2000/svg" viewBox="0 0 48 48"><defs><style>.cls-1{fill:#fff;}.cls-2{fill:#ff3500;}.cls-3{fill:#0088ed;}.cls-4{fill:#ff0005;}.cls-5{fill:#00dc98;}.cls-6{fill:#fc0071;}.cls-7{fill:#ffb800;}.cls-8{fill:#00c0ed;}.cls-9{fill:#ed00e0;}.cls-10{fill:#6e00f3;}.cls-11{fill:#f60;}</style></defs><title>pg</title><g id="图层_2" data-name="图层 2"><rect class="cls-1" width="48" height="48" rx="8" ry="8"/><rect class="cls-2" x="39.95" y="32.54" width="1.93" height="1.93"/><rect x="35.75" y="32.54" width="1.93" height="1.93"/><rect x="37.85" y="32.54" width="1.93" height="1.93"/><rect x="29.44" y="32.54" width="1.93" height="1.93"/><rect x="33.65" y="32.54" width="1.93" height="1.93"/><rect x="31.54" y="32.54" width="1.93" height="1.93"/><rect x="39.95" y="30.42" width="1.93" height="1.93"/><rect x="42.05" y="30.42" width="1.93" height="1.93"/><rect x="35.75" y="30.42" width="1.93" height="1.93"/><rect x="37.85" y="30.42" width="1.93" height="1.93"/><rect x="29.44" y="30.42" width="1.93" height="1.93"/><rect x="33.65" y="30.42" width="1.93" height="1.93"/><rect x="31.54" y="30.42" width="1.93" height="1.93"/><rect class="cls-3" x="27.34" y="30.42" width="1.93" height="1.93"/><rect x="39.95" y="28.31" width="1.93" height="1.93"/><rect class="cls-4" x="44.15" y="28.31" width="1.93" height="1.93"/><rect x="42.05" y="28.31" width="1.93" height="1.93"/><rect x="29.44" y="28.31" width="1.93" height="1.93"/><rect x="25.24" y="28.31" width="1.93" height="1.93"/><rect x="27.34" y="28.31" width="1.93" height="1.93"/><rect x="44.15" y="26.2" width="1.93" height="1.93"/><rect x="42.05" y="26.2" width="1.93" height="1.93"/><rect x="25.24" y="26.2" width="1.93" height="1.93"/><rect x="27.34" y="26.2" width="1.93" height="1.93"/><rect x="39.95" y="24.09" width="1.93" height="1.93"/><rect x="44.15" y="24.09" width="1.93" height="1.93"/><rect x="42.05" y="24.09" width="1.93" height="1.93"/><rect x="35.75" y="24.09" width="1.93" height="1.93"/><rect x="37.85" y="24.09" width="1.93" height="1.93"/><rect x="25.24" y="24.09" width="1.93" height="1.93"/><rect x="27.34" y="24.09" width="1.93" height="1.93"/><rect x="39.95" y="21.98" width="1.93" height="1.93"/><rect class="cls-5" x="44.15" y="21.98" width="1.93" height="1.93"/><rect x="42.05" y="21.98" width="1.93" height="1.93"/><rect x="35.75" y="21.98" width="1.93" height="1.93"/><rect x="37.85" y="21.98" width="1.93" height="1.93"/><rect x="25.24" y="21.98" width="1.93" height="1.93"/><rect x="27.34" y="21.98" width="1.93" height="1.93"/><rect x="25.24" y="19.87" width="1.93" height="1.93"/><rect x="27.34" y="19.87" width="1.93" height="1.93"/><rect x="39.95" y="17.76" width="1.93" height="1.93"/><rect x="42.05" y="17.76" width="1.93" height="1.93"/><rect x="29.44" y="17.76" width="1.93" height="1.93"/><rect class="cls-6" x="25.24" y="17.76" width="1.93" height="1.93"/><rect x="27.34" y="17.76" width="1.93" height="1.93"/><rect x="39.95" y="15.64" width="1.93" height="1.93"/><rect x="42.05" y="15.64" width="1.93" height="1.93"/><rect x="35.75" y="15.64" width="1.93" height="1.93"/><rect x="37.85" y="15.64" width="1.93" height="1.93"/><rect x="29.44" y="15.64" width="1.93" height="1.93"/><rect x="33.65" y="15.64" width="1.93" height="1.93"/><rect x="31.54" y="15.64" width="1.93" height="1.93"/><rect x="27.34" y="15.64" width="1.93" height="1.93"/><rect x="35.75" y="13.53" width="1.93" height="1.93"/><rect x="37.85" y="13.53" width="1.93" height="1.93"/><rect class="cls-7" x="29.44" y="13.53" width="1.93" height="1.93"/><rect x="33.65" y="13.53" width="1.93" height="1.93"/><rect x="31.54" y="13.53" width="1.93" height="1.93"/><rect x="1.91" y="32.54" width="1.93" height="1.93"/><rect class="cls-8" x="4.02" y="32.54" width="1.93" height="1.93"/><rect x="1.91" y="30.42" width="1.93" height="1.93"/><rect x="4.02" y="30.42" width="1.93" height="1.93"/><rect x="12.42" y="28.31" width="1.93" height="1.93"/><rect class="cls-9" x="14.52" y="28.31" width="1.93" height="1.93"/><rect x="6.12" y="28.31" width="1.93" height="1.93"/><rect x="10.32" y="28.31" width="1.93" height="1.93"/><rect x="8.22" y="28.31" width="1.93" height="1.93"/><rect x="1.91" y="28.31" width="1.93" height="1.93"/><rect x="4.02" y="28.31" width="1.93" height="1.93"/><rect x="16.63" y="26.2" width="1.93" height="1.93"/><rect x="18.73" y="26.2" width="1.93" height="1.93"/><rect x="12.42" y="26.2" width="1.93" height="1.93"/><rect x="14.52" y="26.2" width="1.93" height="1.93"/><rect x="6.12" y="26.2" width="1.93" height="1.93"/><rect x="10.32" y="26.2" width="1.93" height="1.93"/><rect x="8.22" y="26.2" width="1.93" height="1.93"/><rect x="1.91" y="26.2" width="1.93" height="1.93"/><rect x="4.02" y="26.2" width="1.93" height="1.93"/><rect x="16.63" y="24.09" width="1.93" height="1.93"/><rect x="20.83" y="24.09" width="1.93" height="1.93"/><rect x="18.73" y="24.09" width="1.93" height="1.93"/><rect x="1.91" y="24.09" width="1.93" height="1.93"/><rect x="4.02" y="24.09" width="1.93" height="1.93"/><rect x="20.83" y="21.98" width="1.93" height="1.93"/><rect x="18.73" y="21.98" width="1.93" height="1.93"/><rect x="1.91" y="21.98" width="1.93" height="1.93"/><rect x="4.02" y="21.98" width="1.93" height="1.93"/><rect x="20.83" y="19.87" width="1.93" height="1.93"/><rect x="18.73" y="19.87" width="1.93" height="1.93"/><rect x="1.91" y="19.87" width="1.93" height="1.93"/><rect x="4.02" y="19.87" width="1.93" height="1.93"/><rect x="16.63" y="17.76" width="1.93" height="1.93"/><rect x="20.83" y="17.76" width="1.93" height="1.93"/><rect x="18.73" y="17.76" width="1.93" height="1.93"/><rect x="1.91" y="17.76" width="1.93" height="1.93"/><rect x="4.02" y="17.76" width="1.93" height="1.93"/><rect x="16.63" y="15.64" width="1.93" height="1.93"/><rect x="18.73" y="15.64" width="1.93" height="1.93"/><rect x="12.42" y="15.64" width="1.93" height="1.93"/><rect x="14.52" y="15.64" width="1.93" height="1.93"/><rect x="6.12" y="15.64" width="1.93" height="1.93"/><rect x="10.32" y="15.64" width="1.93" height="1.93"/><rect x="8.22" y="15.64" width="1.93" height="1.93"/><rect class="cls-10" x="1.91" y="15.64" width="1.93" height="1.93"/><rect x="4.02" y="15.64" width="1.93" height="1.93"/><rect x="16.63" y="13.53" width="1.93" height="1.93"/><rect class="cls-11" x="18.73" y="13.53" width="1.93" height="1.93"/><rect x="12.42" y="13.53" width="1.93" height="1.93"/><rect x="14.52" y="13.53" width="1.93" height="1.93"/><rect x="6.12" y="13.53" width="1.93" height="1.93"/><rect x="10.32" y="13.53" width="1.93" height="1.93"/><rect x="8.22" y="13.53" width="1.93" height="1.93"/><rect x="4.02" y="13.53" width="1.93" height="1.93"/></g></svg>