<svg xmlns="http://www.w3.org/2000/svg" viewBox="0 0 48 48"><defs><style>.cls-1{fill:#13426d;}.cls-2{fill:#2f69ac;}.cls-3{fill:#e7ac25;}</style></defs><title>pt</title><g id="图层_2" data-name="图层 2"><path class="cls-1" d="M17.67.94A24.12,24.12,0,0,0,.86,30.48,23.82,23.82,0,0,0,30.33,47.06,24.12,24.12,0,0,0,47.14,17.52,23.82,23.82,0,0,0,17.67.94Z"/><path class="cls-2" d="M17.67.94A24.12,24.12,0,0,0,.86,30.48,23.82,23.82,0,0,0,30.33,47.06,24.12,24.12,0,0,0,47.14,17.52,23.82,23.82,0,0,0,17.67.94Zm-11,33.49A22.81,22.81,0,0,1,7.05,19a17.81,17.81,0,0,0-.22,10A18.5,18.5,0,0,0,29.47,41.79,19.06,19.06,0,0,0,32,40.92c-.44.31-.89.62-1.35.9C20.94,47.7,10.19,44.39,6.63,34.43Zm22.93,3.93c-7.56,4.22-15.8,1.58-18.39-5.9s1.44-17,9-21.2S36,9.67,38.57,17.16,37.13,34.13,29.56,38.36ZM42.85,20.51c-.07-.31-.12-.63-.2-.94A18.64,18.64,0,0,0,9.28,14.36a25.31,25.31,0,0,1,8.43-8.6c9.69-5.88,20.44-2.57,24,7.39A20.52,20.52,0,0,1,42.85,20.51Z"/><path class="cls-3" d="M36.87,21.56,16.89,10a2.1,2.1,0,0,0-3.16,1.82V34.92a2.11,2.11,0,0,0,3.16,1.83l20-11.54A2.11,2.11,0,0,0,36.87,21.56Zm-5.95,3.3L20.07,31.12a1.7,1.7,0,0,1-2.55-1.47V17.12a1.7,1.7,0,0,1,2.55-1.46l10.85,6.26A1.7,1.7,0,0,1,30.92,24.86Z"/></g></svg>